<svg width="158" height="37" viewBox="0 0 158 37" fill="none" xmlns="http://www.w3.org/2000/svg">
<path d="M17.7069 36.4001C24.8708 36.4001 30.6782 31.1734 30.6782 24.7259C30.6782 18.2785 24.8708 13.0518 17.7069 13.0518C10.5431 13.0518 4.7356 18.2785 4.7356 24.7259C4.7356 31.1734 10.5431 36.4001 17.7069 36.4001Z" fill="#FAA251"/>
<path d="M7.06041 15.0935C4.85 14.9274 3.20961 13.1447 3.43107 11.1479C3.64432 9.19915 5.60867 7.75603 7.80269 7.93688C9.96799 8.11404 11.5674 9.87827 11.3664 11.8676C11.1737 13.8127 9.24212 15.2596 7.06041 15.0935ZM13.6137 12.436C13.7942 12.3327 13.8147 12.2404 13.7163 12.0743C13.298 11.3435 12.8305 10.646 12.2768 9.989C10.173 7.48659 7.35568 5.94012 4.07902 4.99526C3.1399 4.72583 2.15567 4.59296 1.22065 4.31614C0.543992 4.11684 0.117493 3.69239 0.0231708 3.04649C-0.210584 1.44465 1.36008 0.119635 3.11939 0.451813C4.59984 0.732318 6.05158 1.1051 7.4541 1.62182C10.6611 2.7992 13.3841 4.56343 15.574 6.98095C16.6567 8.17679 17.444 9.53502 18.2724 10.8785C20.0317 13.7315 21.344 16.7543 22.644 19.7882C23.7185 22.2943 24.4239 24.9075 25.4696 27.4246C26.1668 29.1077 26.7819 30.8128 27.3437 32.5328C25.9658 33.9132 24.2229 34.9909 22.2586 35.6552C21.9756 34.751 21.6885 33.8467 21.3769 32.9462C21.1472 32.2892 20.9134 31.6322 20.6551 30.894C19.88 32.0788 19.1541 33.175 18.4365 34.2786C17.9772 34.9835 17.5138 35.6811 17.0462 36.3823C14.9589 36.2901 13.0027 35.7475 11.2885 34.8691C12.568 32.9683 13.827 31.0601 15.0778 29.1446C15.4141 28.6278 15.7544 28.1148 16.0825 27.5907C16.2425 27.336 16.1727 27.2401 15.857 27.2216C15.6765 27.2142 15.5002 27.2069 15.3238 27.181C14.5447 27.074 13.8188 26.8119 13.0724 26.6089C10.7062 25.9741 8.33991 25.3245 5.97366 24.686C5.23139 24.4867 4.79668 24.029 4.58754 23.3721C4.46861 22.9956 4.4522 22.6154 4.54653 22.2427C4.89921 20.8881 5.57177 19.6627 6.50678 18.5592C8.38092 16.3484 13.6137 12.436 13.6137 12.436ZM12.3014 19.4155C12.2153 19.2937 12.1415 19.3047 12.0308 19.3933C11.2721 19.9839 10.5831 20.6261 10.0213 21.427C11.4648 21.8182 12.8797 22.2021 14.3765 22.6081C13.7983 21.4233 13.0355 20.4304 12.3014 19.4155Z" fill="white"/>
<path d="M31.0678 20.9506C30.8258 21.1425 30.5347 21.1795 30.2599 21.2422C29.4684 21.4157 29.0296 21.8254 28.8943 22.5414C28.8164 22.9548 28.6318 23.3644 28.4924 23.7778C28.4514 23.9033 28.4022 24.0399 28.2135 24.0473C28.0167 24.0546 28.029 23.9144 28.029 23.7852C28.0331 23.1836 28.0331 22.5783 28.0495 21.9767C28.0577 21.7405 27.9429 21.5891 27.7337 21.4895C27.4138 21.3345 27.0694 21.2201 26.7167 21.1167C26.606 21.0835 26.4583 21.065 26.487 20.9063C26.5116 20.7476 26.6593 20.7329 26.7864 20.696C27.1637 20.5889 27.5369 20.4782 27.9019 20.3342C28.1766 20.2235 28.3489 20.0685 28.435 19.8101C28.6236 19.2159 28.8369 18.6217 29.0378 18.0312C29.0788 17.9094 29.1157 17.7617 29.3085 17.7617C29.5135 17.7654 29.5012 17.9167 29.4971 18.0533C29.4889 18.6106 29.4889 19.1642 29.4602 19.7216C29.4438 20.0464 29.5709 20.2604 29.8908 20.3748C30.1738 20.4745 30.4568 20.5815 30.7438 20.6775C30.8669 20.7181 30.9817 20.7661 31.0801 20.8436C31.0842 20.8731 31.076 20.91 31.0678 20.9506Z" fill="white"/>
<path d="M29.5875 14.1194C29.5301 14.2966 29.3988 14.3557 29.2348 14.4C28.6853 14.5476 28.144 14.7174 27.6026 14.9093C27.0859 15.0938 26.7824 15.3928 26.6389 15.8689C26.3969 16.6772 26.1058 17.4781 25.8351 18.2827C25.8064 18.3676 25.7654 18.4525 25.7367 18.5374C25.6834 18.685 25.5644 18.7625 25.4086 18.7662C25.2364 18.7699 25.1379 18.685 25.142 18.5263C25.1461 18.0391 25.1502 17.5519 25.1544 17.0648C25.1585 16.5886 25.1502 16.1088 25.1626 15.629C25.1708 15.3264 25.0149 15.1455 24.7525 15.0089C24.2603 14.758 23.7231 14.5808 23.1777 14.4221C23.0095 14.3741 22.8168 14.3298 22.8537 14.1231C22.8865 13.9128 23.0916 13.8685 23.2802 13.8168C23.8707 13.6581 24.4613 13.4846 25.0313 13.2447C25.3635 13.1045 25.6014 12.9125 25.708 12.5877C25.9991 11.7056 26.3026 10.8272 26.602 9.94509C26.6266 9.86758 26.6635 9.79376 26.6922 9.71625C26.7496 9.56124 26.8686 9.47266 27.0408 9.47266C27.2171 9.47635 27.2951 9.56862 27.2951 9.72363C27.291 10.2034 27.2868 10.6796 27.2827 11.1594C27.2786 11.6392 27.2868 12.1153 27.2704 12.5951C27.2581 12.9088 27.4222 13.0971 27.6969 13.2336C28.2055 13.4957 28.7673 13.6692 29.3332 13.8389C29.4973 13.8943 29.5998 13.9644 29.5875 14.1194Z" fill="white"/>
<path d="M45.3003 16.8291H50.9552L49.2118 21.7294H53.1457C55.2199 21.7294 56.1988 20.8765 56.7845 19.1988L57.6293 16.8291H63.32L62.3231 19.581C61.6302 21.5403 60.4233 23.1536 58.3312 23.8818C59.8645 24.5779 59.8824 26.1912 59.3459 27.7401L57.1689 33.9038H51.4782L53.4988 28.1505C54.1738 26.3159 53.7313 25.6199 51.6571 25.6199H47.826L44.9069 33.9038H39.261L45.3003 16.8291Z" fill="white"/>
<path d="M61.9343 28.7786C63.1592 25.2703 66.2034 23.3392 71.2951 23.3392H76.3554L76.6058 22.7075C77.1914 21.0338 76.7488 20.3378 73.2709 20.3378C71.0582 20.3378 68.8051 20.6557 66.5611 21.2229L67.8396 17.5537C70.0211 16.9543 73.0921 16.5117 75.6581 16.5117C81.0671 16.5117 83.5973 18.8854 82.0461 23.3432L78.3268 33.9042H72.6362L75.0814 26.948H70.9017C69.0063 26.948 67.9737 27.3584 67.4462 28.8108C66.9768 30.1063 67.3031 30.581 69.5204 30.581C70.2937 30.581 71.076 30.5166 71.6885 30.3597L70.4726 33.7755C69.4533 34.0611 68.1704 34.218 66.5208 34.218C63.2531 34.218 60.6067 32.5403 61.9343 28.7786Z" fill="white"/>
<path d="M77.4282 9.33398H81.8538L81.076 11.4542H89.6142L88.2329 14.7734H77.7277C76.6146 14.7734 75.8279 13.7998 76.1676 12.8463L77.4282 9.33398Z" fill="white"/>
<path d="M85.2735 33.6786L84.1515 22.1681H89.6678L90.4948 30.5445C93.3558 30.4197 95.3004 28.553 96.6191 24.8556C97.7814 21.6008 97.1868 20.6835 94.2364 20.6835H92.8328L94.2051 16.8252H96.5923C101.934 16.8252 104.143 19.4805 102.238 24.8556C99.9092 31.4336 95.3942 34.2137 89.3549 34.2137C88.0183 34.2177 86.2838 34.0608 85.2735 33.6786Z" fill="white"/>
<path d="M103.351 27.64L103.673 26.6905C104.594 23.9708 107.893 22.5506 108.322 21.2833C108.532 20.6838 108.345 20.4907 107.54 20.4907H105.466L107.205 16.8255H112.649C114.862 16.8255 115.426 17.7106 114.791 19.4809C113.78 22.3575 110.347 23.7495 109.435 26.3727L108.953 27.7647C108.304 29.6637 108.814 30.3879 111.273 30.3879C113.521 30.3879 114.97 29.4384 115.609 27.6078L116.244 25.8376C116.668 24.6347 116.337 23.8783 115.072 23.8783H114.263L115.846 20.3378H116.266C117.638 20.3378 118.371 19.7705 118.908 18.2176L119.498 16.5117H125.189L124.599 18.2176C123.906 20.2091 122.913 21.4442 120.817 22.2328C122.261 23.0857 122.43 24.3208 121.791 26.1514L121.273 27.5435C119.788 31.7156 116.333 34.214 109.9 34.214C104.424 34.218 101.948 31.7196 103.351 27.64Z" fill="white"/>
<path d="M124.764 28.054L128.738 16.8291H134.393L130.575 27.6114C129.838 29.6673 130.383 30.3915 132.56 30.3915C134.107 30.3915 135.908 29.7276 137.021 28.9069L141.308 16.8291H146.999L140.955 33.8997H135.721L135.966 32.4152C134.008 33.5215 131.675 34.2176 129.114 34.2176C125.399 34.2176 123.436 31.8157 124.764 28.054Z" fill="white"/>
<path d="M146.293 27.229H150.79L150.254 28.778H155.032L153.588 32.3506H144.487L146.293 27.229ZM149.252 18.917H153.749L153.217 20.4338H157.996L156.548 24.0386H147.451L149.252 18.917Z" fill="white"/>
</svg>
