<?xml version="1.0" standalone="no"?>
<!DOCTYPE svg PUBLIC "-//W3C//DTD SVG 20010904//EN"
 "http://www.w3.org/TR/2001/REC-SVG-20010904/DTD/svg10.dtd">
<svg version="1.0" xmlns="http://www.w3.org/2000/svg"
 width="512.000000pt" height="512.000000pt" viewBox="0 0 512.000000 512.000000"
 preserveAspectRatio="xMidYMid meet">
<metadata>
Created by potrace 1.14, written by Peter Selinger 2001-2017
</metadata>
<g transform="translate(0.000000,512.000000) scale(0.100000,-0.100000)"
fill="#000000" stroke="none">
<path d="M819 5107 c-61 -17 -131 -59 -165 -99 -95 -113 -108 -289 -27 -379
42 -46 96 -68 287 -114 620 -149 1077 -471 1359 -957 26 -46 50 -94 54 -107 7
-28 27 -7 -248 -246 -228 -198 -595 -562 -677 -673 -111 -149 -187 -299 -233
-461 -48 -166 2 -331 115 -385 41 -19 1102 -342 1191 -362 33 -8 82 -16 108
-20 27 -3 50 -11 53 -18 5 -13 -150 -283 -452 -787 -85 -141 -156 -263 -159
-272 -13 -31 290 -155 466 -191 75 -15 260 -39 264 -34 2 2 105 176 230 388
125 212 228 386 229 387 3 3 99 -306 156 -502 26 -87 53 -161 59 -163 21 -7
273 126 370 196 52 37 135 105 184 152 l91 86 -54 175 c-29 96 -84 262 -123
369 -74 209 -158 460 -311 930 -56 172 -154 438 -235 640 -188 469 -277 664
-436 955 -227 420 -322 554 -540 770 -332 329 -741 555 -1238 685 -176 46
-253 55 -318 37z m1408 -2819 c92 -146 178 -306 169 -315 -6 -6 -518 146 -530
157 -13 13 80 133 172 223 44 42 84 77 89 77 5 0 50 -64 100 -142z"/>
<path d="M1425 4040 c-160 -32 -290 -132 -365 -280 -96 -189 -52 -432 104
-585 196 -192 498 -193 702 -3 148 138 197 356 124 549 -85 228 -330 366 -565
319z"/>
<path d="M4008 3818 c-10 -8 -44 -104 -82 -228 -37 -118 -72 -225 -78 -238
-18 -35 -87 -71 -222 -117 -116 -40 -121 -43 -121 -70 0 -26 6 -30 65 -50 100
-35 173 -70 197 -97 22 -23 23 -31 25 -263 l3 -240 28 -3 c34 -4 37 2 106 238
29 96 62 195 74 220 27 55 74 83 220 130 108 35 142 56 132 82 -3 8 -56 34
-117 58 -60 23 -124 55 -141 70 l-32 28 -5 244 c-4 207 -7 243 -20 246 -9 1
-23 -3 -32 -10z"/>
<path d="M4292 2623 c-6 -16 -29 -87 -52 -159 -28 -91 -48 -138 -65 -154 -13
-13 -66 -38 -117 -55 -73 -25 -94 -37 -96 -53 -3 -16 7 -23 50 -37 76 -25 126
-52 138 -74 6 -11 10 -87 10 -175 0 -151 1 -156 21 -156 25 0 40 34 75 168 43
161 75 198 200 233 118 33 118 50 -1 94 -115 42 -118 48 -113 225 3 80 3 151
1 158 -8 22 -40 13 -51 -15z"/>
</g>
</svg>
