<svg width="32" height="32" viewBox="0 0 32 32" fill="none" xmlns="http://www.w3.org/2000/svg">
<path d="M32 16C32 7.16216 24.8378 0 16 0C7.16217 0 0 7.16216 0 16C0 24.8378 7.16217 32 16 32C24.8378 32 32 24.8378 32 16Z" fill="#D8D8D8"/>
<path d="M6.11499 14.1622C6.11499 14.8514 6.66904 15.4054 7.35823 15.4054H7.75012C8.43931 15.4054 8.99336 14.8514 8.99336 14.1622C8.99336 13.473 8.43931 12.9189 7.75012 12.9189H7.35823C6.6758 12.9189 6.11499 13.4798 6.11499 14.1622Z" fill="#A9A9A9"/>
<path d="M23 14.1622C23 14.8514 23.5541 15.4054 24.2432 15.4054H24.6351C25.3243 15.4054 25.8784 14.8514 25.8784 14.1622C25.8784 13.473 25.3243 12.9189 24.6351 12.9189H24.2432C23.5608 12.9189 23 13.4798 23 14.1622Z" fill="#A9A9A9"/>
<path d="M16.0068 22.9793C12.5406 22.9725 10.6554 19.7901 10.5744 19.6549C10.3581 19.2766 10.4865 18.7968 10.8649 18.5739C11.2433 18.3577 11.723 18.486 11.946 18.8577C11.973 18.9049 13.473 21.3914 16 21.3982C18.9325 21.3982 19.9662 19.0536 20.0068 18.9522C20.1757 18.5536 20.6419 18.3644 21.0406 18.5333C21.4392 18.7022 21.6352 19.1549 21.4662 19.5604C21.4122 19.6955 20.0135 22.9793 16.0068 22.9793Z" fill="#A9A9A9"/>
</svg>
