<svg width="32" height="32" viewBox="0 0 32 32" fill="none" xmlns="http://www.w3.org/2000/svg">
<path d="M32 16C32 7.16216 24.8379 0 16 0C7.16218 0 0 7.16216 0 16C0 24.8378 7.16218 32 16 32C24.8379 32 32 24.8378 32 16Z" fill="#9DD655"/>
<path d="M6.1217 14.1622C6.1217 14.8514 6.67578 15.4054 7.36497 15.4054H7.75686C8.44605 15.4054 9.00011 14.8514 9.00011 14.1622C9.00011 13.473 8.44605 12.9189 7.75686 12.9189H7.36497C6.67578 12.9189 6.1217 13.4798 6.1217 14.1622Z" fill="#313131"/>
<path d="M23.0001 14.1622C23.0001 14.8514 23.5542 15.4054 24.2434 15.4054H24.6353C25.3244 15.4054 25.8785 14.8514 25.8785 14.1622C25.8785 13.473 25.3244 12.9189 24.6353 12.9189H24.2434C23.5609 12.9189 23.0001 13.4798 23.0001 14.1622Z" fill="#313131"/>
<path d="M9.91895 17.9531C9.91895 17.9531 12.0946 23.0207 16 23.0275C20.5338 23.0342 22.0811 17.9531 22.0811 17.9531H9.91895Z" fill="#313131"/>
</svg>
