<svg width="32" height="32" viewBox="0 0 32 32" fill="none" xmlns="http://www.w3.org/2000/svg">
<path d="M32 16C32 7.16216 24.8311 0 16 0C7.16216 0 0 7.16216 0 16C0 24.8378 7.16216 32 16 32C24.8311 32 32 24.8378 32 16Z" fill="#FFCFA3"/>
<path d="M6.11487 14.088C6.11487 14.7772 6.66892 15.3312 7.35811 15.3312H7.75C8.43919 15.3312 8.99324 14.7772 8.99324 14.088C8.99324 13.3988 8.43919 12.8447 7.75 12.8447H7.35811C6.66892 12.8447 6.11487 13.3988 6.11487 14.088Z" fill="#313131"/>
<path d="M23 14.088C23 14.7772 23.5541 15.3312 24.2433 15.3312H24.6352C25.3243 15.3312 25.8784 14.7772 25.8784 14.088C25.8784 13.3988 25.3243 12.8447 24.6352 12.8447H24.2433C23.5541 12.8447 23 13.3988 23 14.088Z" fill="#313131"/>
<path d="M18.1352 21.5132C18.0406 21.5132 17.9527 21.4997 17.8581 21.4659L12.0541 19.3037C11.6487 19.1551 11.4392 18.6956 11.5879 18.2902C11.7365 17.878 12.196 17.6753 12.6014 17.824L18.4055 19.9862C18.8109 20.1416 19.0203 20.5943 18.8717 20.9997C18.7568 21.3172 18.4527 21.5132 18.1352 21.5132Z" fill="#313131"/>
</svg>
