<svg width="32" height="32" viewBox="0 0 32 32" fill="none" xmlns="http://www.w3.org/2000/svg">
<path d="M32 16C32 7.16216 24.8378 0 16 0C7.16892 0 0 7.16216 0 16C0 24.8378 7.16216 32 16 32C24.8378 32 32 24.8378 32 16Z" fill="#F98820"/>
<path d="M6.36499 14.1622C6.36499 14.8514 6.91904 15.4054 7.60823 15.4054H8.00013C8.68932 15.4054 9.24337 14.8514 9.24337 14.1622C9.24337 13.473 8.68932 12.9189 8.00013 12.9189H7.60823C6.9258 12.9189 6.36499 13.4798 6.36499 14.1622Z" fill="#313131"/>
<path d="M23.25 14.1622C23.25 14.8514 23.8041 15.4054 24.4932 15.4054H24.8851C25.5743 15.4054 26.1284 14.8514 26.1284 14.1622C26.1284 13.473 25.5743 12.9189 24.8851 12.9189H24.4932C23.8108 12.9189 23.25 13.4798 23.25 14.1622Z" fill="#313131"/>
<path d="M20.7366 22.1826C20.4258 22.1826 20.1285 22.0002 20.0068 21.6961C19.9663 21.6015 18.9325 19.2569 16.0068 19.2569C13.4595 19.2637 11.9595 21.7705 11.946 21.7975C11.7231 22.1759 11.2433 22.2975 10.8649 22.0813C10.4866 21.865 10.3582 21.3786 10.5812 21.0069C10.6622 20.8718 12.5406 17.6894 16.0001 17.6826C20.0136 17.6826 21.4122 20.9664 21.4663 21.1015C21.6352 21.5069 21.4393 21.9664 21.0339 22.1353C20.9393 22.1623 20.8379 22.1826 20.7366 22.1826Z" fill="#313131"/>
</svg>
