<svg width="32" height="32" viewBox="0 0 32 32" fill="none" xmlns="http://www.w3.org/2000/svg">
<path d="M32 16C32 7.16216 24.8378 0 16 0C7.16216 0 0 7.16216 0 16C0 24.8378 7.16216 32 16 32C24.8378 32 32 24.8378 32 16Z" fill="#F03B3B"/>
<path d="M6.11487 14.1622C6.11487 14.8514 6.66892 15.4054 7.35811 15.4054H7.75C8.43919 15.4054 8.99325 14.8514 8.99325 14.1622C8.99325 13.473 8.43919 12.9189 7.75 12.9189H7.35811C6.67568 12.9189 6.11487 13.4798 6.11487 14.1622Z" fill="#313131"/>
<path d="M6.2702 11.4257C6.04047 11.8378 6.06749 12.2905 6.32425 12.4324L9.10803 13.9662C9.36479 14.1081 9.76344 13.8919 9.98641 13.473C10.2161 13.0608 10.1891 12.6081 9.93236 12.4662L7.14857 10.9324C6.89857 10.7905 6.49993 11.0135 6.2702 11.4257Z" fill="#313131"/>
<path d="M25.5135 11.4257C25.7432 11.8378 25.7162 12.2905 25.4595 12.4324L22.6757 13.9662C22.4189 14.1081 22.0203 13.8919 21.7973 13.473C21.5676 13.0608 21.5946 12.6081 21.8514 12.4662L24.6351 10.9324C24.8851 10.7905 25.2838 11.0135 25.5135 11.4257Z" fill="#313131"/>
<path d="M23 14.1622C23 14.8514 23.5541 15.4054 24.2432 15.4054H24.6351C25.3243 15.4054 25.8784 14.8514 25.8784 14.1622C25.8784 13.473 25.3243 12.9189 24.6351 12.9189H24.2432C23.5608 12.9189 23 13.4798 23 14.1622Z" fill="#313131"/>
<path d="M20.7433 22.1826C20.4325 22.1826 20.1352 22.0002 20.0136 21.6961C19.973 21.6015 18.9392 19.2569 16.0136 19.2569C13.4663 19.2637 11.9663 21.7705 11.9527 21.7975C11.7298 22.1759 11.25 22.2975 10.8717 22.0813C10.4933 21.865 10.3649 21.3786 10.5879 21.0069C10.669 20.8718 12.5473 17.6894 16.0068 17.6826C20.0203 17.6826 21.419 20.9664 21.473 21.1015C21.6419 21.5069 21.446 21.9664 21.0406 22.1353C20.946 22.1623 20.8446 22.1826 20.7433 22.1826Z" fill="#313131"/>
</svg>
